<svg xmlns="http://www.w3.org/2000/svg" width="42" height="43" fill="none"><rect width="42" height="43" fill="#2FB378" fill-opacity=".1" rx="21"/><g fill="#2FB378" clip-path="url(#a)"><path d="M14.812 16.552a8.25 8.25 0 0 1 9.63-2.176.917.917 0 0 0 .745-1.674 10.083 10.083 0 1 0 5.98 9.215v-.852a.917.917 0 0 0-1.834 0v.852a8.25 8.25 0 1 1-14.521-5.365Z"/><path d="M31.815 14.315a.917.917 0 1 0-1.297-1.296l-9.435 9.435-2.101-2.102a.917.917 0 0 0-1.297 1.297l2.75 2.75a.917.917 0 0 0 1.297 0l10.083-10.084Z"/></g><defs><clipPath id="a"><path fill="#fff" d="M11 10h22v22H11z"/></clipPath></defs></svg>